inDegrees=no
num_controls=7
num_derivatives=13
num_iterations=186
num_multipliers=7
num_parameters=0
num_slacks=7
num_states=26
objective=6.339322
objective_accelerations=0.637583
objective_balance=0.038406
objective_effort=0.524415
objective_height=5.071188
objective_ligament=0.067730
solver_duration=1687.194591
status=Solve_Succeeded
success=true
DataType=double
version=3
OpenSimVersion=4.4-2022-07-23-0e9fedc
endheader
time	/jointset/ground_pelvis/pelvis_tilt/value	/jointset/ground_pelvis/pelvis_tx/value	/jointset/ground_pelvis/pelvis_ty/value	/jointset/hip_r/hip_flexion_r/value	/jointset/hip_r/hip_adduction_r/value	/jointset/hip_r/hip_rotation_r/value	/jointset/back/lumbar_extension/value	/jointset/patellofemoral_r/patellar_flexion_r/value	/jointset/knee_r/knee_flexion_r/value	/jointset/knee_r/knee_adduction_r/value	/jointset/knee_r/knee_rotation_r/value	/jointset/ankle_r/ankle_angle_r/value	/jointset/subtalar_r/subtalar_angle_r/value	/jointset/ground_pelvis/pelvis_tilt/speed	/jointset/ground_pelvis/pelvis_tx/speed	/jointset/ground_pelvis/pelvis_ty/speed	/jointset/hip_r/hip_flexion_r/speed	/jointset/hip_r/hip_adduction_r/speed	/jointset/hip_r/hip_rotation_r/speed	/jointset/back/lumbar_extension/speed	/jointset/patellofemoral_r/patellar_flexion_r/speed	/jointset/knee_r/knee_flexion_r/speed	/jointset/knee_r/knee_adduction_r/speed	/jointset/knee_r/knee_rotation_r/speed	/jointset/ankle_r/ankle_angle_r/speed	/jointset/subtalar_r/subtalar_angle_r/speed	/forceset/tau_hip_flexion_r	/forceset/tau_hip_adduction_r	/forceset/tau_hip_rotation_r	/forceset/tau_knee_flexion_r	/forceset/tau_ankle_angle_r	/forceset/tau_subtalar_angle_r	/forceset/tau_lumbar_extension	lambda_cid13_p0	lambda_cid14_p0	lambda_cid14_p1	lambda_cid14_p2	lambda_cid14_p3	lambda_cid14_p4	lambda_cid14_p5	/jointset/ground_pelvis/pelvis_tilt/accel	/jointset/ground_pelvis/pelvis_tx/accel	/jointset/ground_pelvis/pelvis_ty/accel	/jointset/hip_r/hip_flexion_r/accel	/jointset/hip_r/hip_adduction_r/accel	/jointset/hip_r/hip_rotation_r/accel	/jointset/back/lumbar_extension/accel	/jointset/patellofemoral_r/patellar_flexion_r/accel	/jointset/knee_r/knee_flexion_r/accel	/jointset/knee_r/knee_adduction_r/accel	/jointset/knee_r/knee_rotation_r/accel	/jointset/ankle_r/ankle_angle_r/accel	/jointset/subtalar_r/subtalar_angle_r/accel	gamma_cid13_p0	gamma_cid14_p0	gamma_cid14_p1	gamma_cid14_p2	gamma_cid14_p3	gamma_cid14_p4	gamma_cid14_p5
0	-0.006506178244889443	0.09625684771778448	0.9427239463718428	0.1762555651711513	-0.2321556324413691	-0.2615641641420086	-0.0385979564078546	0.0731781648776173	0.07317816487761825	0.1745329251994329	0.1744596774833132	0.0324735960626065	-0.003455983084223203	0	0	0	0	0	0	0	0	0	0	0	0	0	0.231372115109981	-0.178208774835546	-0.04461471369601855	-0.4101116481599782	0.3989528294477484	-0.1316137674061045	-0.1275778325714391	-39.07413637510868	78.8470380551862	-33.60282978746901	-5.321362101839287	-30.98039291283785	-677.4597813008761	69.82950315955897	-2.323112007754223	-1.271753472855979	-0.6750692229020978	10.08885969843846	0.2443396076887169	2.698836220388301	-5.169493497618133	10.24650330852054	10.2465033085206	-3.256473770527515	0.1997349698505728	3.41226950755712	1.023590471811002	1.184312302380868e-07	6.129152500770502e-08	-8.03996994492588e-07	2.474576758047427e-07	4.583595877885348e-08	1.481430346173593e-08	-4.053288212579221e-07
0.01	-0.006614851282860664	0.09619440619366609	0.9426915056679829	0.1767435729336807	-0.2321420481824135	-0.2614204152728674	-0.03885939249545105	0.07367610661013274	0.07367610661013778	0.1743701990438123	0.174456777046271	0.03264042681888434	-0.003404338250473033	-0.02163980246257013	-0.01240707386294987	-0.006474407791919156	0.09713663403428682	0.002662589188326336	0.02859634756209636	-0.0519224946939888	0.09916426940607487	0.09916426940607556	-0.03230264378255351	-0.0005554451632675446	0.03324188768983964	0.01024508924541703	0.2264944317525427	-0.1873759556284518	-0.04344598241602868	-0.4047043143116917	0.3898556148510074	-0.1198397947619561	-0.1234681986632638	-39.09068880050352	76.37406119924935	-28.98675367123331	-5.983777739824482	-30.12493282895441	-677.8712173189456	78.52251705287398	-2.070187041972872	-1.212990531635097	-0.6315636474703906	9.456333631865265	0.268997962339266	2.917080833628778	-5.148919031537841	9.687753505730189	9.687753505730248	-3.180672298971594	-0.1794152246792025	3.261529064704849	1.012288394404315	1.643886948906645e-07	7.115615819399971e-08	-1.102274147896931e-06	2.552473386872431e-07	8.204441341626802e-08	-1.782278795376374e-07	-4.938758693911879e-07
0.02	-0.00693707688074934	0.09601033269319417	0.9425947334681771	0.17818900071174	-0.2321034821539873	-0.2609952935662018	-0.03962911184523727	0.07515296398653211	0.07515296398653223	0.1738917372861368	0.1744490759645238	0.03313595258506222	-0.003252778475569246	-0.04271051198372336	-0.02432639527070624	-0.01286629918917329	0.1914840031062338	0.00499635389403992	0.05627456750453318	-0.1016566524379252	0.195783128775319	0.1957831287753194	-0.06314579223919982	-0.000960128937085854	0.06573900197997815	0.01998298823072458	0.2216167483950835	-0.1965431364213588	-0.04227725113611321	-0.3992969804634041	0.3807584002542629	-0.1080658221178087	-0.119358564755103	-39.13962234960054	73.99279495689152	-24.37776640590958	-6.618621510563494	-29.45085214192374	-676.8674602574387	86.95260472255616	-2.209293419470872	-1.17420298181725	-0.6585659439690953	9.531006705970483	0.1785747111661638	2.515210696456398	-4.731826107607661	9.737421301154388	9.737421301154244	-2.964574705346067	0.2298872477404167	3.263314827616921	0.9221524197891128	2.103461595432422e-07	8.10207913802944e-08	-1.400551301301274e-06	2.630370015697436e-07	1.182528680536826e-07	-3.712700625370107e-07	-5.824229175244538e-07
0.03	-0.007467460252169588	0.09570901768252321	0.9424341485441062	0.1805651565563283	-0.232043170324977	-0.260300300637324	-0.04088508475928632	0.07758413484625376	0.0775841348462519	0.1731122713991076	0.174440156695465	0.03395229396428687	-0.00300636411790435	-0.06325045287319531	-0.03590174820126382	-0.01925822244956491	0.283315628047648	0.007025182224706755	0.08256920032620961	-0.1492096798567673	0.2900193155428712	0.2900193155428724	-0.09250544374067571	-0.0008374981218556885	0.09734388670465439	0.02921824818578832	0.2144358950839018	-0.1875518858660639	-0.04043306215240794	-0.3903403770017009	0.3688662754861545	-0.1103059194667429	-0.1137647404963493	-39.21965910165348	70.14582845431383	-26.05057396778601	-6.321824826361263	-26.95958897880185	-676.0381787972308	82.32890926523243	-1.958966737361187	-1.143948852395534	-0.6307110747420216	8.944523076806163	0.208750788811475	2.66344387635549	-4.717803481804704	9.201915965765366	9.201915965765487	-2.885563031998988	-0.0985163715889348	3.081308360348073	0.9117759385638889	2.305733628100768e-07	8.233022400983693e-08	-1.527562656867123e-06	2.585920370176857e-07	1.380290711457691e-07	-5.041120128991939e-07	-6.174387247420914e-07
0.04	-0.008199767495218746	0.09529299966180264	0.9422094032758979	0.1838466851880485	-0.2319638274337014	-0.2593469905199639	-0.04260674043207986	0.0809447072938887	0.08094470729388877	0.1720464284651808	0.1744320702605689	0.03507913080384942	-0.002670084529649052	-0.08309528630970439	-0.04726699728062513	-0.02569836801666806	0.3725585605322336	0.008802566347154829	0.1079380052011748	-0.194793204186902	0.3816634463588124	0.3816634463588116	-0.1204212016201771	-0.000793562106756547	0.1278380940475348	0.03795603434880741	0.207255041772731	-0.1785606353107692	-0.03858887316865924	-0.3813837735399993	0.3569741507180471	-0.1125460168156778	-0.1081709162375877	-39.32904140975479	66.38241898610136	-27.73245802077484	-5.996500324961872	-24.63464409040014	-673.9152666787329	77.45558893490842	-2.070271928878328	-1.132182211577971	-0.668210405311403	9.013268214604727	0.1282858695224103	2.330045107114154	-4.337925489866217	9.219010110832158	9.219010110831475	-2.675795980951154	0.2141482877142082	3.041179351257779	0.8226576613801874	2.502700452235971e-07	8.346326075161136e-08	-1.651042758869292e-06	2.538948121061523e-07	1.574664649276427e-07	-6.357127213513319e-07	-6.513507950336335e-07
0.05	-0.009127772406532886	0.09476456783005284	0.9419197413362617	0.1880086682490057	-0.2318680149851569	-0.2581466306200967	-0.04477383913667447	0.08520982219000547	0.08520982219000547	0.1707088692878477	0.1744260112524843	0.03650584123203215	-0.002248806085397324	-0.1024019927836217	-0.05836265035430828	-0.03225804453651848	0.4593972315373755	0.01033162012824229	0.1319710257193908	-0.2383046668324541	0.4709282887223988	0.4709282887223957	-0.1468559947019177	-0.0004494584002511793	0.1573450021700309	0.04623922412297583	0.2005238086487422	-0.1760987574380969	-0.03675711626476307	-0.374769175501971	0.3469346065188397	-0.1090468087836662	-0.1028660129136929	-39.46572116033965	63.41352789737677	-26.82587203349411	-6.034477564986312	-23.13761641774896	-672.2386706270258	77.83717016981592	-1.84528479812443	-1.089717397574222	-0.6535781751990515	8.453060357655687	0.1607754998280231	2.415569831728591	-4.309476167007269	8.715484464629126	8.715484464629194	-2.592359069095002	-0.06003574951333047	2.881648733564337	0.8218530250615557	2.474787122148472e-07	7.940624581377485e-08	-1.610953811662228e-06	2.764135602734196e-07	1.61536312368449e-07	-7.057474478927347e-07	-6.716770293593297e-07
0.06	-0.01024572734088042	0.09412688735910414	0.9415637362514515	0.1930258167828518	-0.2317577999253163	-0.2567108126535368	-0.0473663963707461	0.0903546381428585	0.09035463814285834	0.1691139545602372	0.1744224778491404	0.03822286117960362	-0.001746555065478654	-0.121085290916583	-0.06911672512040477	-0.03896699705145309	0.543591655109989	0.01168308860637356	0.1550296185397376	-0.2798849100823127	0.5576036577062748	0.5576036577062722	-0.1718923116760377	-0.0002884411590274892	0.1858999979252796	0.05415054948219982	0.1937925755247488	-0.1736368795654234	-0.03492535936085987	-0.368154577463946	0.3368950623196317	-0.1055476007516535	-0.09756110958980198	-39.62723960903662	60.52006983493801	-25.92291721450538	-6.052640137522655	-21.79112709232115	-669.402331728878	77.99864658772835	-1.945590260687166	-1.063866550060613	-0.6980656043282407	8.484418728099023	0.0927688089311703	2.135159567540317	-3.951681610727558	8.701115434890081	8.701115434889944	-2.396100759427012	0.1775309946578683	2.850796877808306	0.7482847783913085	2.437405153988439e-07	7.513070238416525e-08	-1.563977746593724e-06	3.000782441492679e-07	1.649591052264735e-07	-7.731899225642118e-07	-6.914312284864638e-07
